<?xml version='1.0' encoding='iso-8859-1'?>
<svg version="1.1" xmlns="http://www.w3.org/2000/svg" viewBox="0 0 404.832 404.832" xmlns:xlink="http://www.w3.org/1999/xlink" enable-background="new 0 0 404.832 404.832">
  <g>
    <g>
      <g>
        <path d="m172.041,49.517c38.058-12.019 79.243-1.957 107.471,26.255 20.123,20.118 31.198,46.865 31.198,75.324 0,21.779-6.549,42.535-18.613,60.114l-45.485-45.48c-1.731-1.731-4.792-1.731-6.524,0l-36.277,36.277-26.1-24.63c-1.656-1.556-4.195-1.681-5.987-0.296l-51.387,39.664c-21.568-27.485-28.438-63.847-17.755-97.771 0.768-2.434-0.582-5.023-3.016-5.791s-5.018,0.587-5.791,3.016c-12.064,38.319-3.538,79.509 22.135,109.734 0.01,0.01 0.01,0.025 0.015,0.035 0.01,0.01 0.03,0.015 0.04,0.025 2.027,2.384 4.125,4.712 6.363,6.95l78.591,78.586c0.903,0.903 2.083,1.355 3.262,1.355s2.364-0.447 3.267-1.355l78.586-78.586c21.865-21.859 33.903-50.935 33.903-81.858s-12.034-59.993-33.893-81.853c-3.056-3.051-6.288-5.851-9.595-8.506 0.567-8.621 7.708-15.366 16.319-15.366 6.388,0 12.25,3.789 14.929,9.65 0.527,1.149 1.49,2.032 2.685,2.444 1.184,0.411 2.499,0.316 3.628-0.261 1.671-0.858 3.387-1.3 5.099-1.3 6.167,0 11.186,5.018 11.186,11.186s-5.018,11.186-11.186,11.186c-2.549,0-4.617,2.068-4.617,4.612s2.068,4.617 4.617,4.617c11.256,0 20.414-9.158 20.414-20.414s-9.158-20.414-20.414-20.414c-1.746,0-3.468,0.231-5.164,0.698-4.732-6.94-12.651-11.236-21.172-11.236-11.587,0-21.418,7.803-24.534,18.542-28.835-19.23-65.047-24.69-98.975-13.976-2.429,0.768-3.784,3.362-3.011,5.786 0.759,2.455 3.359,3.805 5.788,3.037zm107.46,176.913l-75.329,75.324-75.329-75.324c-0.863-0.863-1.656-1.781-2.489-2.67l47.874-36.959 26.506,25.001c1.812,1.706 4.647,1.671 6.428-0.1l36.177-36.187 43.177,43.172c-2.192,2.675-4.536,5.259-7.015,7.743z"/>
        <path d="m166.857,119.391c0.903,0.903 2.078,1.355 3.262,1.355 0.371,0 0.728-0.125 1.104-0.216-6.278,6.76-10.508,15.421-11.698,25.036l-14.553-.005c-0.01,0-0.01,0-0.01,0-2.539,0-4.612,2.062-4.612,4.612 0,2.549 2.062,4.617 4.612,4.617l14.463,.005c0.251,3.136 0.723,6.253 1.626,9.269 0.592,2.002 2.429,3.292 4.416,3.292 0.442,0 0.883-0.06 1.325-0.196 2.439-0.728 3.834-3.302 3.106-5.746-1.004-3.342-1.51-6.81-1.51-10.313 0-19.737 16.053-35.795 35.79-35.795s35.79,16.058 35.79,35.795c0,2.549 2.068,4.617 4.622,4.617 0.045,0 0.075-0.025 0.12-0.025 0.11,0.005 0.196,0.065 0.311,0.065l18.768,.01c0.005,0 0.005,0 0.005,0 2.549,0 4.617-2.068 4.617-4.612s-2.068-4.612-4.612-4.617l-14.834-.01c-1.009-10.006-5.339-19.014-11.828-26.005 0.356,0.09 0.728,0.216 1.099,0.216 1.179,0 2.364-0.452 3.262-1.35l7.899-7.899c1.802-1.802 1.802-4.722 0-6.524-1.797-1.802-4.722-1.802-6.524-0.005l-7.904,7.899c-1.214,1.209-1.536,2.921-1.124,4.466-7.271-6.398-16.61-10.473-26.878-11.105 1.079-0.848 1.822-2.108 1.822-3.588v-13.854c0-2.549-2.057-4.612-4.612-4.612-2.554,0-4.617,2.068-4.617,4.612v13.855c0,1.48 0.743,2.74 1.827,3.588-10.272,0.632-19.611,4.707-26.883,11.105 0.422-1.546 0.1-3.247-1.114-4.456l-7.894-7.909c-1.802-1.807-4.732-1.802-6.529-0.005-1.807,1.802-1.807,4.722-0.01,6.524l7.9,7.909z"/>
        <path d="m92.767,92.694c3.468,0 6.734-1.194 9.339-3.322 7.487,4.466 17.288,4.286 24.604-0.391 3.222,2.394 7.111,3.714 11.166,3.714 10.423,0 18.904-8.476 18.904-18.904 0-10.418-8.476-18.894-18.904-18.894-1.516,0-3.006,0.186-4.476,0.562-4.381-6.233-11.587-10.087-19.33-10.087-10.89,0-20.163,7.467-22.808,17.689-7.487,0.758-13.349,7.096-13.349,14.774 0.005,8.195 6.67,14.859 14.854,14.859zm0-20.474c0.386,0 0.808,0.06 1.305,0.176 1.33,0.321 2.735,0.035 3.834-0.778 1.089-0.813 1.776-2.073 1.852-3.432 0.452-7.613 6.745-13.574 14.322-13.574 5.605,0 10.744,3.322 13.098,8.466 0.522,1.149 1.495,2.032 2.69,2.449 1.204,0.411 2.509,0.316 3.628-0.266 6.659-3.458 14.056,1.741 14.056,8.541 0,5.329-4.341,9.67-9.67,9.67-2.81,0-5.49-1.27-7.347-3.483-0.813-0.969-1.987-1.561-3.242-1.636-0.1-0.005-0.196-0.01-0.286-0.01-1.164,0-2.283,0.437-3.146,1.229-5.329,4.938-13.87,5.058-19.325,0.191-1.014-0.908-2.374-1.325-3.729-1.129s-2.539,0.974-3.262,2.133c-1.049,1.691-2.83,2.7-4.772,2.7-3.096,0-5.62-2.524-5.62-5.625-0.006-3.098 2.518-5.622 5.614-5.622z"/>
        <path d="m79.735,223.158c0-2.549-2.068-4.617-4.617-4.617h-70.511c-2.549,0-4.607,2.068-4.607,4.617 0,2.544 2.057,4.612 4.607,4.612h70.511c2.549,2.84217e-14 4.617-2.067 4.617-4.612z"/>
        <path d="m131.473,322.404h-37.336c0.261-0.577 0.417-1.204 0.417-1.877v-25.412c2.615,1.345 5.52,2.073 8.516,2.073 10.418,0 18.889-8.481 18.889-18.899 0-10.423-8.471-18.899-18.889-18.899-1.521,0-3.021,0.191-4.491,0.567-4.376-6.238-11.577-10.087-19.33-10.087-12.45,0-22.793,9.781-23.526,22.266-0.146,2.544 1.792,4.727 4.341,4.878 2.559,0.156 4.722-1.792 4.873-4.336 0.452-7.613 6.734-13.579 14.312-13.579 5.605,0 10.754,3.327 13.103,8.471 0.522,1.149 1.49,2.032 2.685,2.444 1.184,0.406 2.509,0.316 3.628-0.266 6.689-3.443 14.066,1.736 14.066,8.541 0,5.329-4.336,9.665-9.665,9.665-2.85,0-5.46-1.24-7.367-3.488-0.813-0.964-1.987-1.556-3.247-1.626-1.255-0.085-2.494,0.361-3.422,1.224-2.705,2.509-6.172,3.894-9.781,3.894-4.441,0-7.643-2.017-9.545-3.708-1.912-1.691-4.833-1.521-6.519,0.386-1.696,1.907-1.521,4.823 0.386,6.514 5.967,5.304 14.317,7.041 21.744,5.139v24.243c0,0.672 0.156,1.3 0.411,1.877h-25.392c-2.554,0-4.622,2.063-4.622,4.612 0,2.549 2.068,4.617 4.622,4.617h71.134c2.549,0 4.617-2.068 4.617-4.617 0.005-2.554-2.063-4.617-4.612-4.617z"/>
        <path d="m263.789,360.327h-119.233c-2.549,0-4.617,2.063-4.617,4.612 0,2.549 2.068,4.612 4.617,4.612h119.234c2.549,0 4.617-2.068 4.617-4.612-0.001-2.549-2.068-4.612-4.618-4.612z"/>
        <path d="m156.665,322.404c-2.549,0-4.617,2.063-4.617,4.612 0,2.549 2.068,4.617 4.617,4.617h11.848c2.549,0 4.617-2.068 4.617-4.617 0-2.549-2.068-4.612-4.617-4.612h-11.848z"/>
        <path d="m400.225,218.542h-70.506c-2.554,0-4.622,2.068-4.622,4.617 0,2.544 2.068,4.612 4.622,4.612h70.506c2.549,0 4.607-2.068 4.607-4.612-5.68434e-14-2.555-2.057-4.617-4.607-4.617z"/>
        <path d="m329.915,303.676h-17.574v-8.285c0-1.977-1.25-3.633-3.001-4.286 3.879-0.336 7.562-1.887 10.473-4.597 1.862-1.731 1.967-4.657 0.236-6.519-1.746-1.867-4.667-1.967-6.534-0.236-1.566,1.46-3.573,2.263-5.666,2.263-2.579,0-4.446-1.179-5.555-2.168-1.907-1.686-4.828-1.521-6.514,0.391-1.686,1.907-1.521,4.823 0.391,6.514 2.83,2.509 6.338,3.974 9.996,4.336-1.776,0.642-3.061,2.303-3.061,4.301v8.285h-21.468c-2.554,0-4.617,2.068-4.617,4.617s2.062,4.612 4.617,4.612h48.276c2.554,0 4.612-2.068 4.612-4.612 0.001-2.543-2.057-4.616-4.611-4.616z"/>
        <path d="m252.001,303.676c-2.549,0-4.612,2.068-4.612,4.617s2.062,4.612 4.612,4.612h3.824c2.549,0 4.612-2.068 4.612-4.612 0-2.544-2.062-4.617-4.612-4.617h-3.824z"/>
        <path d="m307.855,256.028c-9.279,0-16.972,7.276-17.529,16.56-0.146,2.544 1.792,4.727 4.331,4.883 0.095,0.005 0.186,0.005 0.286,0.005 2.424,0 4.461-1.892 4.597-4.341 0.271-4.421 3.914-7.884 8.315-7.884 3.247,0 6.243,1.932 7.613,4.918 1.059,2.313 3.794,3.342 6.122,2.273 2.318-1.064 3.332-3.799 2.268-6.117-2.876-6.257-9.159-10.297-16.003-10.297z"/>
      </g>
    </g>
  </g>
</svg>
